<?xml version="1.0" encoding="UTF-8" standalone="no"?>
<!DOCTYPE svg PUBLIC "-//W3C//DTD SVG 1.1//EN" "http://www.w3.org/Graphics/SVG/1.1/DTD/svg11.dtd">
<svg xmlns="http://www.w3.org/2000/svg" version="1.1" viewBox="0.00 0.00 381.00 121.00">
<g stroke-width="2.00" fill="none" stroke-linecap="butt">
<path stroke="#7f7e7e" vector-effect="non-scaling-stroke" d="
  M 42.78 26.97
  C 41.09 30.67 40.15 35.11 38.96 38.31
  Q 37.01 43.54 35.09 48.78
  Q 35.05 48.90 33.06 55.31
  Q 31.88 59.12 29.79 62.96"
/>
<path stroke="#7f7e7e" vector-effect="non-scaling-stroke" d="
  M 156.21 0.80
  C 173.76 6.40 184.35 22.83 181.11 41.12"
/>
<path stroke="#7f7e7e" vector-effect="non-scaling-stroke" d="
  M 174.92 54.83
  Q 172.77 58.18 170.27 59.56
  Q 167.83 60.91 166.81 61.91"
/>
<path stroke="#7f7e7e" vector-effect="non-scaling-stroke" d="
  M 147.98 67.86
  L 142.34 67.57"
/>
<path stroke="#7f7e7e" vector-effect="non-scaling-stroke" d="
  M 127.73 61.54
  Q 128.75 61.68 129.61 61.50
  Q 130.15 61.38 130.15 60.83
  L 130.16 43.67
  Q 130.16 43.07 129.56 43.07
  L 113.97 43.01"
/>
<path stroke="#7f7e7e" vector-effect="non-scaling-stroke" d="
  M 158.84 34.31
  A 12.84 12.84 0.0 0 0 146.00 21.47
  A 12.84 12.84 0.0 0 0 133.16 34.31
  A 12.84 12.84 0.0 0 0 146.00 47.15
  A 12.84 12.84 0.0 0 0 158.84 34.31"
/>
<path stroke="#7f7e7e" vector-effect="non-scaling-stroke" d="
  M 97.80 61.50
  C 95.38 57.43 94.22 52.00 93.01 48.85
  C 90.81 43.11 88.92 38.10 86.84 31.57
  Q 85.57 27.59 84.05 23.90"
/>
<path stroke="#7f7e7e" vector-effect="non-scaling-stroke" d="
  M 72.54 56.86
  L 55.96 56.90
  Q 55.45 56.91 55.28 57.38
  L 54.07 60.72"
/>
<path stroke="#7f7e7e" vector-effect="non-scaling-stroke" d="
  M 63.48 23.23
  L 59.88 40.54
  Q 59.52 42.28 61.29 42.10
  Q 64.23 41.81 67.40 42.06
  Q 68.39 42.14 68.20 41.16
  L 64.58 23.04"
/>
</g>
<path fill="#000000" d="
  M 27.62 0.00
  L 31.85 0.00
  Q 34.67 0.43 37.47 0.85
  Q 43.70 1.80 48.48 5.04
  Q 48.87 5.31 48.73 5.76
  Q 46.47 13.28 43.19 20.60
  Q 42.85 21.34 42.23 20.82
  Q 37.08 16.50 29.66 16.27
  Q 26.62 16.18 25.40 18.84
  Q 25.24 19.19 25.25 19.58
  Q 25.30 21.80 26.76 22.07
  Q 35.79 23.73 42.78 26.97
  C 41.09 30.67 40.15 35.11 38.96 38.31
  Q 37.01 43.54 35.09 48.78
  Q 35.05 48.90 33.06 55.31
  Q 31.88 59.12 29.79 62.96
  Q 19.42 63.70 9.34 60.65
  Q 7.32 60.04 5.24 59.85
  Q 3.03 59.65 0.95 58.13
  A 0.58 0.58 0.0 0 1 0.77 57.43
  Q 4.29 49.75 7.13 41.55
  Q 7.32 41.00 7.78 41.34
  Q 11.01 43.68 15.28 45.68
  C 18.82 47.34 25.34 48.86 27.85 45.09
  C 29.24 43.00 27.23 40.73 25.20 40.43
  C 19.50 39.58 14.40 38.40 9.25 35.46
  Q 7.29 34.34 5.97 32.41
  Q 0.54 24.42 4.05 15.73
  C 5.20 12.87 6.80 9.08 9.47 7.28
  C 11.80 5.70 13.75 3.79 16.35 2.63
  Q 21.64 0.26 27.62 0.00
  Z"
/>
<path fill="#fdfcfc" d="
  M 144.64 0.00
  L 149.49 0.00
  L 156.21 0.80
  C 173.76 6.40 184.35 22.83 181.11 41.12
  Q 178.81 48.53 174.92 54.83
  Q 172.77 58.18 170.27 59.56
  Q 167.83 60.91 166.81 61.91
  C 160.45 64.91 155.21 67.46 147.98 67.86
  L 142.34 67.57
  Q 135.20 65.94 128.84 62.66
  Q 128.49 62.48 127.73 61.54
  Q 128.75 61.68 129.61 61.50
  Q 130.15 61.38 130.15 60.83
  L 130.16 43.67
  Q 130.16 43.07 129.56 43.07
  L 113.97 43.01
  Q 111.51 32.32 115.02 21.98
  Q 116.50 17.59 119.48 14.09
  C 120.82 12.52 122.64 9.33 124.22 8.44
  Q 125.53 7.70 129.39 4.87
  Q 135.32 0.50 144.64 0.00
  Z
  M 158.84 34.31
  A 12.84 12.84 0.0 0 0 146.00 21.47
  A 12.84 12.84 0.0 0 0 133.16 34.31
  A 12.84 12.84 0.0 0 0 146.00 47.15
  A 12.84 12.84 0.0 0 0 158.84 34.31
  Z"
/>
<path fill="#000000" d="
  M 244.98 0.00
  L 302.76 0.00
  L 302.77 95.72
  A 0.41 0.40 -0.0 0 1 302.36 96.12
  L 245.54 96.12
  Q 245.01 96.12 245.01 95.59
  L 244.98 0.00
  Z
  M 270.15 47.80
  Q 267.53 48.10 264.98 49.29
  C 257.81 52.64 255.53 61.64 263.20 66.14
  Q 268.12 69.04 273.80 71.40
  Q 278.54 73.37 280.21 76.24
  C 282.31 79.86 280.84 85.28 276.53 87.06
  Q 275.59 87.45 276.60 87.37
  C 284.36 86.75 294.45 82.71 291.22 73.34
  C 290.22 70.46 287.11 68.10 284.32 66.78
  Q 278.81 64.18 273.24 61.52
  C 270.90 60.41 268.49 58.30 268.25 55.52
  C 267.91 51.50 270.49 47.67 274.66 47.27
  C 280.78 46.68 288.45 43.36 288.06 35.98
  C 287.81 31.35 283.82 28.33 279.69 26.46
  Q 274.46 24.08 269.40 21.54
  C 262.97 18.29 262.71 11.75 268.93 7.78
  Q 269.17 7.63 268.88 7.63
  Q 262.19 7.73 257.55 12.03
  C 252.39 16.82 254.63 23.79 260.33 26.83
  Q 265.37 29.51 270.77 31.86
  C 273.53 33.07 276.87 35.38 277.34 38.55
  C 278.07 43.43 274.98 47.24 270.15 47.80
  Z
  M 287.2551 14.9376
  A 6.04 5.72 -2.3 0 0 280.9904 9.4646
  A 6.04 5.72 -2.3 0 0 275.1849 15.4224
  A 6.04 5.72 -2.3 0 0 281.4496 20.8954
  A 6.04 5.72 -2.3 0 0 287.2551 14.9376
  Z
  M 264.20 81.36
  C 262.90 82.41 261.20 81.70 260.63 80.22
  A 2.57 2.57 0.0 0 1 261.33 77.37
  Q 262.81 76.04 264.58 77.66
  Q 264.99 78.03 265.53 78.03
  L 268.21 78.01
  A 0.43 0.42 -11.4 0 0 268.60 77.43
  C 267.11 73.79 262.92 72.67 259.59 74.54
  C 256.59 76.21 255.85 80.41 258.16 82.95
  C 261.26 86.35 266.77 85.53 268.59 81.16
  Q 268.78 80.69 268.28 80.59
  Q 265.76 80.10 264.20 81.36
  Z"
/>
<path fill="#0f0708" d="
  M 323.04 0.00
  L 381.00 0.00
  L 381.00 96.12
  L 323.37 96.12
  A 0.35 0.35 0.0 0 1 323.02 95.77
  L 323.04 0.00
  Z
  M 367.84 8.08
  Q 368.02 7.96 368.25 7.97
  Q 368.69 7.99 369.00 8.29
  Q 371.27 10.43 374.69 11.05
  Q 375.30 11.15 375.29 10.54
  L 375.29 6.25
  Q 375.29 5.71 374.75 5.71
  L 359.49 5.71
  Q 358.97 5.71 358.68 6.14
  C 357.94 7.22 357.79 8.49 357.00 9.60
  Q 353.87 14.00 349.41 16.53
  Q 349.00 16.76 348.58 16.57
  Q 347.93 16.26 347.92 15.53
  C 347.92 14.80 348.37 14.49 348.75 13.97
  Q 349.00 13.62 348.78 13.25
  L 344.61 6.18
  A 0.96 0.95 74.4 0 0 343.79 5.71
  L 333.19 5.71
  Q 332.50 5.71 332.89 6.28
  Q 336.85 12.09 336.35 19.19
  Q 336.15 22.17 334.61 25.10
  C 331.26 31.47 329.65 39.02 338.22 42.28
  A 0.95 0.94 5.5 0 1 338.83 43.01
  Q 338.97 43.77 338.49 44.16
  Q 338.08 44.51 337.55 44.39
  Q 335.44 43.90 333.54 42.26
  Q 333.05 41.83 332.82 42.44
  Q 332.32 43.73 332.18 45.06
  C 331.57 50.71 331.49 56.91 333.37 62.03
  C 334.82 65.96 334.94 69.71 334.03 73.78
  Q 333.03 78.30 332.14 82.57
  Q 331.36 86.34 333.04 89.64
  A 1.41 1.40 -13.5 0 0 334.29 90.40
  L 371.05 90.40
  Q 372.35 90.40 372.20 89.10
  Q 371.26 81.21 369.63 74.34
  Q 368.32 68.85 364.64 66.02
  C 361.80 63.85 361.16 60.14 361.65 56.71
  Q 361.95 54.60 360.90 52.54
  Q 360.64 52.02 360.06 52.00
  Q 359.32 51.98 358.75 52.43
  Q 358.25 52.82 357.64 52.66
  Q 356.49 52.37 356.44 51.21
  A 0.97 0.97 0.0 0 1 357.37 50.20
  C 362.01 50.03 366.02 47.12 367.90 42.85
  Q 369.91 38.27 374.74 34.84
  Q 375.29 34.45 375.29 33.77
  L 375.29 20.59
  Q 375.29 20.12 374.83 20.03
  L 372.28 19.50
  A 0.77 0.76 -71.2 0 0 371.44 19.92
  L 371.18 20.45
  Q 370.92 21.01 370.32 20.90
  Q 369.63 20.77 369.33 20.08
  C 368.36 17.83 367.47 15.01 369.66 13.09
  A 1.31 1.30 49.4 0 0 369.80 11.27
  L 367.74 8.80
  Q 367.39 8.38 367.84 8.08
  Z"
/>
<path fill="#000000" d="
  M 113.97 43.01
  L 129.56 43.07
  Q 130.16 43.07 130.16 43.67
  L 130.15 60.83
  Q 130.15 61.38 129.61 61.50
  Q 128.75 61.68 127.73 61.54
  L 97.80 61.50
  C 95.38 57.43 94.22 52.00 93.01 48.85
  C 90.81 43.11 88.92 38.10 86.84 31.57
  Q 85.57 27.59 84.05 23.90
  L 84.22 1.06
  Q 84.22 0.53 84.74 0.53
  L 106.05 0.53
  A 0.35 0.35 0.0 0 1 106.40 0.88
  L 106.40 42.49
  Q 106.40 43.00 106.90 43.00
  L 113.97 43.01
  Z"
/>
<path fill="#000000" d="
  M 156.21 0.80
  L 174.55 0.80
  Q 175.02 0.80 175.26 1.20
  L 195.18 35.03
  Q 195.91 36.26 195.80 34.83
  C 195.39 29.52 194.41 24.51 194.41 19.28
  Q 194.40 10.20 194.40 1.36
  A 0.60 0.60 0.0 0 1 195.00 0.76
  L 214.77 0.77
  Q 215.29 0.77 215.29 1.28
  L 215.29 61.34
  A 0.63 0.63 0.0 0 1 214.66 61.97
  L 194.74 61.97
  Q 194.19 61.97 194.00 61.45
  Q 193.74 60.69 193.08 60.22
  C 191.87 59.34 190.87 57.55 190.00 56.32
  C 188.70 54.49 188.26 52.37 186.84 50.57
  C 184.61 47.75 182.87 44.27 181.11 41.12
  C 184.35 22.83 173.76 6.40 156.21 0.80
  Z"
/>
<path fill="#fdfcfc" d="
  M 84.05 23.90
  Q 85.57 27.59 86.84 31.57
  C 88.92 38.10 90.81 43.11 93.01 48.85
  C 94.22 52.00 95.38 57.43 97.80 61.50
  L 97.94 62.74
  Q 98.00 63.25 97.48 63.25
  L 75.27 63.25
  Q 74.72 63.25 74.54 62.73
  L 72.54 56.86
  L 55.96 56.90
  Q 55.45 56.91 55.28 57.38
  L 54.07 60.72
  L 53.59 62.75
  Q 53.46 63.25 52.95 63.24
  L 29.79 62.96
  Q 31.88 59.12 33.06 55.31
  Q 35.05 48.90 35.09 48.78
  Q 37.01 43.54 38.96 38.31
  C 40.15 35.11 41.09 30.67 42.78 26.97
  L 51.50 2.67
  Q 51.68 2.20 52.18 2.20
  L 75.52 2.20
  Q 76.02 2.20 76.20 2.66
  L 84.05 23.90
  Z
  M 63.48 23.23
  L 59.88 40.54
  Q 59.52 42.28 61.29 42.10
  Q 64.23 41.81 67.40 42.06
  Q 68.39 42.14 68.20 41.16
  L 64.58 23.04
  Q 64.28 22.48 63.74 22.72
  Q 63.40 22.87 63.48 23.23
  Z"
/>
<circle fill="#000000" cx="281.22" cy="15.17" r="2.45"/>
<circle fill="#000000" cx="146.00" cy="34.31" r="12.84"/>
<path fill="#000000" d="
  M 64.58 23.04
  L 68.20 41.16
  Q 68.39 42.14 67.40 42.06
  Q 64.23 41.81 61.29 42.10
  Q 59.52 42.28 59.88 40.54
  L 63.48 23.23
  Q 63.63 23.89 63.90 24.27
  Q 64.27 24.80 64.38 24.16
  L 64.58 23.04
  Z"
/>
<path fill="#000000" d="
  M 174.92 54.83
  L 175.16 61.33
  Q 175.17 61.88 174.63 61.88
  L 166.81 61.91
  Q 167.83 60.91 170.27 59.56
  Q 172.77 58.18 174.92 54.83
  Z"
/>
<path fill="#000000" d="
  M 72.54 56.86
  Q 72.46 58.55 73.37 59.60
  A 0.70 0.70 0.0 0 1 72.84 60.75
  L 54.07 60.72
  L 55.28 57.38
  Q 55.45 56.91 55.96 56.90
  L 72.54 56.86
  Z"
/>
<ellipse fill="#0f0708" cx="0.00" cy="0.00" transform="translate(346.76,67.50) rotate(83.4)" rx="1.85" ry="1.27"/>
<path fill="#000000" d="
  M 142.34 67.57
  L 147.98 67.86
  Q 150.72 69.06 153.22 70.58
  C 156.49 72.57 156.69 78.73 156.04 82.07
  Q 155.48 84.98 153.09 86.73
  Q 145.49 92.28 137.53 87.49
  Q 134.51 85.66 133.64 82.24
  Q 132.43 77.47 134.52 72.80
  Q 135.27 71.12 137.72 69.78
  Q 139.92 68.57 142.34 67.57
  Z
  M 148.7149 77.9757
  A 3.53 3.53 0.0 0 0 145.1178 74.5141
  L 144.4179 74.5275
  A 3.53 3.53 0.0 0 0 140.9563 78.1246
  L 140.9851 79.6243
  A 3.53 3.53 0.0 0 0 144.5822 83.0859
  L 145.2821 83.0725
  A 3.53 3.53 0.0 0 0 148.7437 79.4754
  L 148.7149 77.9757
  Z"
/>
<path fill="#000000" d="
  M 10.94 75.32
  C 13.52 76.03 17.93 76.79 18.94 79.57
  Q 20.11 82.77 18.51 85.28
  C 15.00 90.81 7.88 90.40 2.30 87.84
  Q 1.76 87.59 2.00 87.05
  L 4.08 82.33
  Q 4.32 81.81 4.77 82.15
  L 6.09 83.15
  Q 6.71 83.63 7.47 83.84
  Q 11.12 84.86 11.54 82.77
  A 0.97 0.96 -77.2 0 0 10.84 81.65
  C 8.81 81.11 7.04 81.09 5.18 79.86
  C 1.13 77.18 1.97 72.21 5.59 69.66
  Q 11.20 65.72 18.31 69.38
  A 0.27 0.27 0.0 0 1 18.44 69.73
  L 16.51 74.53
  Q 16.40 74.79 16.17 74.63
  Q 12.87 72.39 10.74 73.51
  A 0.98 0.98 0.0 0 0 10.94 75.32
  Z"
/>
<path fill="#000000" d="
  M 48.21 68.66
  L 48.44 75.80
  Q 48.46 76.19 48.13 75.98
  Q 41.87 71.76 40.05 77.89
  Q 39.60 79.42 40.69 81.16
  C 42.27 83.68 46.06 83.35 47.94 81.51
  Q 48.48 80.98 48.46 81.74
  L 48.23 88.26
  Q 48.21 88.84 47.66 89.02
  Q 41.90 90.86 36.79 87.74
  Q 33.17 85.53 32.47 81.07
  Q 31.95 77.81 33.09 74.17
  Q 33.93 71.50 36.30 69.98
  Q 42.24 66.16 48.09 68.49
  Q 48.21 68.53 48.21 68.66
  Z"
/>
<path fill="#000000" d="
  M 119.9700 78.6291
  A 11.96 11.04 -0.1 0 1 108.0293 89.6900
  A 11.96 11.04 -0.1 0 1 96.0500 78.6709
  A 11.96 11.04 -0.1 0 1 107.9907 67.6100
  A 11.96 11.04 -0.1 0 1 119.9700 78.6291
  Z
  M 112.20 78.80
  A 4.19 4.19 0.0 0 0 108.01 74.61
  A 4.19 4.19 0.0 0 0 103.82 78.80
  A 4.19 4.19 0.0 0 0 108.01 82.99
  A 4.19 4.19 0.0 0 0 112.20 78.80
  Z"
/>
<path fill="#000000" d="
  M 205.48 73.91
  A 0.82 0.81 -61.2 0 0 205.87 75.27
  C 208.37 75.86 213.11 76.82 214.09 79.61
  Q 215.67 84.11 211.98 87.21
  C 207.66 90.84 202.19 90.01 197.20 87.75
  A 0.36 0.34 -65.9 0 1 197.03 87.28
  L 199.28 82.13
  A 0.29 0.29 0.0 0 1 199.72 82.02
  Q 204.23 85.56 206.41 83.54
  A 1.14 1.14 0.0 0 0 205.79 81.58
  C 201.64 81.02 197.13 79.24 197.72 74.34
  Q 198.07 71.44 200.97 69.54
  Q 206.79 65.72 213.47 69.41
  Q 213.67 69.52 213.58 69.73
  L 211.68 74.46
  Q 211.56 74.78 211.27 74.59
  Q 207.35 71.97 205.48 73.91
  Z"
/>
<path fill="#000000" d="
  M 69.95 82.15
  L 69.94 88.96
  A 0.33 0.33 0.0 0 1 69.61 89.29
  L 62.83 89.29
  A 0.33 0.33 0.0 0 1 62.50 88.96
  L 62.50 68.33
  A 0.33 0.33 0.0 0 1 62.83 68.00
  L 69.61 68.00
  A 0.33 0.33 0.0 0 1 69.94 68.33
  L 69.95 74.90
  A 0.33 0.33 0.0 0 0 70.28 75.23
  L 74.46 75.24
  A 0.33 0.33 0.0 0 0 74.79 74.91
  L 74.80 68.33
  A 0.33 0.33 0.0 0 1 75.13 68.00
  L 81.84 68.00
  A 0.33 0.33 0.0 0 1 82.17 68.33
  L 82.17 88.96
  A 0.33 0.33 0.0 0 1 81.84 89.29
  L 75.13 89.30
  A 0.33 0.33 0.0 0 1 74.80 88.97
  L 74.80 82.15
  A 0.33 0.33 0.0 0 0 74.47 81.82
  L 70.28 81.82
  A 0.33 0.33 0.0 0 0 69.95 82.15
  Z"
/>
<path fill="#000000" d="
  M 178.52 82.58
  L 184.41 82.57
  A 0.32 0.32 0.0 0 1 184.73 82.89
  L 184.74 88.97
  A 0.32 0.32 0.0 0 1 184.42 89.29
  L 170.82 89.29
  A 0.32 0.32 0.0 0 1 170.50 88.97
  L 170.50 68.32
  A 0.32 0.32 0.0 0 1 170.82 68.00
  L 177.88 68.00
  A 0.32 0.32 0.0 0 1 178.20 68.32
  L 178.20 82.26
  A 0.32 0.32 0.0 0 0 178.52 82.58
  Z"
/>
<path fill="#000000" d="
  M 0.00 97.02
  L 214.74 97.01
  Q 215.11 97.01 215.13 97.37
  L 215.15 97.69
  Q 215.17 97.99 214.87 97.99
  L 0.00 97.98
  L 0.00 97.02
  Z"
/>
<path fill="#000000" d="
  M 347.77 100.23
  L 346.47 100.16
  Q 346.28 100.15 346.33 99.97
  L 346.44 99.59
  A 0.45 0.45 0.0 0 1 346.86 99.26
  L 350.41 99.13
  Q 350.70 99.11 350.92 99.31
  Q 351.23 99.59 350.87 99.99
  A 0.70 0.66 -73.0 0 1 350.48 100.21
  L 349.84 100.33
  Q 349.36 100.42 349.36 100.91
  L 349.40 104.50
  A 0.39 0.39 0.0 0 1 349.00 104.90
  L 348.63 104.90
  Q 348.27 104.90 348.27 104.54
  L 348.29 100.78
  Q 348.29 100.26 347.77 100.23
  Z"
/>
<path fill="#000000" d="
  M 353.14 100.70
  A 0.53 0.53 0.0 0 0 353.59 101.49
  L 355.28 101.56
  Q 355.90 101.59 355.85 100.97
  L 355.74 99.75
  Q 355.70 99.24 356.21 99.24
  L 356.57 99.23
  Q 356.91 99.23 356.91 99.57
  L 356.91 104.51
  Q 356.91 104.92 356.49 104.94
  L 356.13 104.95
  Q 355.77 104.96 355.77 104.59
  L 355.79 103.01
  Q 355.80 102.48 355.26 102.48
  L 353.75 102.49
  Q 353.25 102.50 353.24 103.00
  L 353.19 104.59
  Q 353.18 104.82 352.96 104.86
  L 352.57 104.94
  Q 352.12 105.03 352.12 104.57
  L 352.05 99.85
  Q 352.03 98.71 352.96 99.37
  Q 353.61 99.84 353.14 100.70
  Z"
/>
<path fill="#000000" d="
  M 359.05 101.11
  A 0.94 0.93 -24.2 0 0 360.37 101.61
  Q 361.02 101.27 361.56 101.71
  Q 362.06 102.12 361.47 102.39
  Q 360.83 102.68 360.17 102.46
  Q 359.42 102.21 359.07 102.93
  Q 358.94 103.22 359.02 103.51
  Q 359.15 104.00 359.66 103.99
  L 362.00 103.97
  Q 362.29 103.96 362.25 104.25
  L 362.18 104.71
  Q 362.15 104.94 361.91 104.94
  L 358.95 104.99
  Q 357.88 105.01 357.89 103.95
  L 357.93 99.94
  Q 357.94 99.07 358.81 99.09
  L 361.73 99.16
  A 0.38 0.37 -6.2 0 1 362.08 99.44
  L 362.17 99.78
  Q 362.27 100.13 361.90 100.11
  L 359.80 100.00
  Q 359.20 99.97 359.03 100.54
  Q 358.94 100.81 359.05 101.11
  Z"
/>
<path fill="#000000" d="
  M 367.05 100.20
  Q 366.00 100.78 367.11 101.26
  L 369.05 102.10
  A 1.22 1.22 0.0 0 1 369.60 103.87
  Q 368.40 105.74 366.01 104.59
  Q 365.74 104.46 365.56 104.21
  Q 365.27 103.81 365.43 103.67
  Q 365.79 103.35 366.19 103.62
  Q 367.04 104.19 368.03 103.89
  Q 369.00 103.60 368.20 102.99
  Q 367.49 102.45 366.57 102.22
  A 1.50 1.49 -55.9 0 1 366.06 99.56
  Q 367.53 98.50 369.26 99.63
  A 0.36 0.35 38.9 0 1 369.32 100.18
  L 369.12 100.38
  A 0.50 0.50 0.0 0 1 368.43 100.39
  Q 367.80 99.78 367.05 100.20
  Z"
/>
<path fill="#000000" d="
  M 381.00 104.42
  L 381.00 105.03
  Q 380.01 104.93 379.45 104.09
  Q 379.17 103.67 378.69 103.56
  Q 377.10 103.22 376.07 104.75
  Q 375.83 105.09 375.46 104.89
  L 375.23 104.77
  Q 375.06 104.68 375.14 104.50
  L 377.13 100.15
  Q 378.03 98.20 378.95 100.14
  L 381.00 104.42
  Z
  M 378.67 102.20
  Q 378.65 101.72 378.41 101.31
  Q 377.99 100.58 377.65 101.35
  Q 377.47 101.75 377.43 102.21
  A 0.46 0.45 -80.6 0 0 377.77 102.70
  Q 378.00 102.75 378.24 102.72
  A 0.49 0.48 85.1 0 0 378.67 102.20
  Z"
/>
<path fill="#000000" d="
  M 254.98 100.97
  Q 254.87 100.14 255.38 99.60
  Q 256.01 98.94 256.01 99.85
  L 256.01 104.91
  A 0.32 0.32 0.0 0 1 255.57 105.21
  L 255.23 105.07
  Q 255.02 104.98 255.02 104.75
  L 255.01 103.26
  A 0.49 0.48 88.9 0 0 254.51 102.77
  L 253.06 102.83
  A 0.70 0.70 0.0 0 0 252.39 103.56
  L 252.44 104.77
  A 0.42 0.42 0.0 0 1 251.60 104.86
  Q 251.14 102.37 251.60 99.64
  A 0.35 0.35 0.0 0 1 252.26 99.55
  Q 252.57 100.20 252.47 100.90
  Q 252.32 101.92 253.35 101.79
  Q 253.70 101.75 254.03 101.83
  Q 255.14 102.10 254.98 100.97
  Z"
/>
<path fill="#000000" d="
  M 371.81 103.52
  L 371.86 104.45
  A 0.48 0.48 0.0 0 1 371.24 104.93
  Q 371.00 104.84 370.86 104.65
  Q 370.75 104.50 370.75 104.32
  Q 370.81 102.26 370.71 100.04
  Q 370.68 99.37 371.33 99.23
  Q 373.86 98.68 374.95 100.22
  A 1.51 1.51 0.0 0 1 375.12 101.63
  Q 374.44 103.42 372.45 102.98
  Q 371.77 102.83 371.81 103.52
  Z
  M 374.0288 101.1535
  A 1.18 1.05 2.6 0 0 372.8976 100.0511
  A 1.18 1.05 2.6 0 0 371.6712 101.0465
  A 1.18 1.05 2.6 0 0 372.8024 102.1489
  A 1.18 1.05 2.6 0 0 374.0288 101.1535
  Z"
/>
<path fill="#000000" d="
  M 250.76 102.34
  A 2.92 2.92 0.0 0 1 247.84 105.26
  A 2.92 2.92 0.0 0 1 244.92 102.34
  A 2.92 2.92 0.0 0 1 247.84 99.42
  A 2.92 2.92 0.0 0 1 250.76 102.34
  Z
  M 249.70 102.34
  A 1.86 1.86 0.0 0 0 247.84 100.48
  A 1.86 1.86 0.0 0 0 245.98 102.34
  A 1.86 1.86 0.0 0 0 247.84 104.20
  A 1.86 1.86 0.0 0 0 249.70 102.34
  Z"
/>
<rect fill="#000000" x="-0.54" y="-2.83" transform="translate(257.55,102.30) rotate(0.6)" width="1.08" height="5.66" rx="0.46"/>
<path fill="#000000" d="
  M 264.57 102.33
  A 2.90 2.90 0.0 0 1 261.67 105.23
  A 2.90 2.90 0.0 0 1 258.77 102.33
  A 2.90 2.90 0.0 0 1 261.67 99.43
  A 2.90 2.90 0.0 0 1 264.57 102.33
  Z
  M 263.47 102.34
  A 1.85 1.85 0.0 0 0 261.62 100.49
  A 1.85 1.85 0.0 0 0 259.77 102.34
  A 1.85 1.85 0.0 0 0 261.62 104.19
  A 1.85 1.85 0.0 0 0 263.47 102.34
  Z"
/>
<path fill="#000000" d="
  M 275.21 101.11
  L 275.17 104.87
  Q 275.17 105.24 274.81 105.16
  L 274.53 105.10
  Q 274.08 105.01 274.09 104.55
  L 274.09 101.08
  A 0.73 0.73 0.0 0 0 273.32 100.35
  L 269.52 100.57
  Q 268.86 100.61 268.99 101.26
  Q 269.04 101.53 269.35 101.59
  Q 270.40 101.82 271.25 102.34
  A 1.44 1.44 0.0 0 1 271.33 104.74
  Q 269.78 105.83 267.81 104.54
  A 0.29 0.28 -54.6 0 1 267.74 104.12
  L 267.92 103.90
  Q 268.17 103.60 268.48 103.82
  Q 269.49 104.53 270.58 104.09
  Q 271.31 103.80 270.66 103.36
  Q 269.77 102.76 268.77 102.47
  A 1.39 1.39 0.0 0 1 268.06 100.29
  Q 269.12 98.92 270.89 99.74
  Q 271.35 99.95 271.83 99.83
  Q 273.95 99.32 276.37 99.50
  Q 277.10 99.55 276.77 100.21
  Q 276.48 100.80 275.83 100.63
  Q 275.21 100.47 275.21 101.11
  Z"
/>
<path fill="#000000" d="
  M 279.77 103.84
  Q 278.03 103.52 277.25 104.93
  Q 277.13 105.16 276.86 105.16
  Q 276.59 105.16 276.47 104.90
  A 0.38 0.37 -44.0 0 1 276.48 104.60
  L 278.55 99.85
  A 0.70 0.70 0.0 0 1 279.83 99.85
  L 281.88 104.44
  Q 282.43 105.69 281.29 104.94
  Q 280.92 104.70 280.65 104.36
  A 1.42 1.42 0.0 0 0 279.77 103.84
  Z
  M 279.92 102.46
  Q 279.87 101.98 279.58 101.63
  Q 279.14 101.10 278.80 101.70
  Q 278.58 102.07 278.53 102.48
  Q 278.46 103.04 279.01 102.89
  Q 279.23 102.83 279.44 102.88
  Q 279.98 103.02 279.92 102.46
  Z"
/>
<path fill="#000000" d="
  M 287.38 101.33
  Q 287.72 101.75 288.24 101.76
  Q 289.07 101.78 289.98 101.88
  Q 290.45 101.94 290.19 102.34
  L 289.94 102.73
  Q 289.90 102.80 289.81 102.79
  Q 288.40 102.55 287.47 103.22
  A 0.43 0.43 0.0 0 0 287.48 103.93
  Q 288.24 104.46 289.26 104.21
  Q 290.05 104.02 290.54 104.49
  Q 291.22 105.13 290.29 105.13
  L 286.92 105.14
  Q 286.32 105.14 286.32 104.54
  L 286.38 100.94
  A 0.44 0.44 0.0 0 0 285.95 100.50
  L 284.76 100.48
  Q 284.23 100.47 284.23 100.99
  L 284.21 104.82
  Q 284.21 105.17 283.86 105.16
  L 283.60 105.15
  A 0.53 0.53 0.0 0 1 283.10 104.62
  L 283.10 101.13
  Q 283.10 100.53 282.50 100.50
  L 281.79 100.46
  Q 281.06 100.43 281.38 99.76
  Q 281.53 99.46 281.86 99.48
  Q 285.95 99.66 290.01 99.47
  A 0.47 0.47 0.0 0 1 290.50 100.03
  Q 290.47 100.21 290.34 100.34
  Q 290.04 100.67 289.61 100.54
  Q 288.52 100.20 287.50 100.72
  Q 287.06 100.95 287.38 101.33
  Z"
/>
<path fill="#000000" d="
  M 127.95 121.00
  L 126.23 121.00
  Q 121.40 119.91 119.83 115.44
  C 118.39 111.34 120.16 106.60 124.52 105.28
  Q 129.68 103.70 134.12 108.01
  Q 134.29 108.17 134.12 108.34
  L 133.93 108.53
  Q 133.60 108.86 133.29 108.51
  Q 129.63 104.41 123.68 106.45
  C 120.83 107.43 119.97 111.86 120.49 114.23
  Q 121.26 117.76 123.93 119.16
  C 127.64 121.09 132.96 119.08 133.78 114.70
  A 0.76 0.76 0.0 0 0 133.04 113.80
  L 128.54 113.76
  A 0.21 0.20 -0.0 0 1 128.33 113.56
  L 128.33 113.27
  Q 128.33 113.25 128.34 113.25
  Q 131.11 113.23 133.97 113.25
  Q 134.53 113.25 134.54 113.81
  Q 134.62 119.31 127.95 121.00
  Z"
/>
<path fill="#000000" d="
  M 168.05 121.00
  L 166.82 121.00
  Q 157.21 117.65 160.54 109.37
  Q 161.68 106.53 163.83 105.66
  Q 169.17 103.51 173.61 107.34
  C 174.89 108.45 175.56 110.63 175.55 112.30
  Q 175.54 119.18 168.05 121.00
  Z
  M 174.6933 112.1869
  A 6.37 6.37 0.0 0 0 168.3567 105.7836
  L 167.0168 105.7766
  A 6.37 6.37 0.0 0 0 160.6135 112.1131
  L 160.6067 113.4131
  A 6.37 6.37 0.0 0 0 166.9433 119.8164
  L 168.2832 119.8234
  A 6.37 6.37 0.0 0 0 174.6865 113.4869
  L 174.6933 112.1869
  Z"
/>
<path fill="#000000" d="
  M 146.92 113.62
  L 150.91 120.36
  Q 151.05 120.59 150.81 120.73
  L 150.54 120.89
  Q 150.35 121.01 150.24 120.81
  Q 148.25 117.14 146.38 114.36
  Q 144.56 111.66 144.55 114.92
  L 144.53 120.39
  Q 144.53 120.69 144.23 120.69
  L 143.91 120.68
  Q 143.69 120.67 143.69 120.45
  L 143.67 105.74
  Q 143.67 105.19 144.21 105.08
  C 148.23 104.27 152.26 106.68 149.92 111.32
  Q 149.09 112.97 147.27 112.99
  Q 146.56 113.00 146.92 113.62
  Z
  M 144.56 106.49
  L 144.48 111.77
  A 0.55 0.55 0.0 0 0 145.03 112.33
  L 146.84 112.36
  A 3.03 2.82 -89.2 0 0 149.70 109.37
  L 149.70 109.05
  A 3.03 2.82 -89.2 0 0 146.92 105.98
  L 145.11 105.95
  A 0.55 0.55 0.0 0 0 144.56 106.49
  Z"
/>
<path fill="#000000" d="
  M 190.60 121.00
  L 188.83 121.00
  C 185.97 120.03 184.33 118.10 184.40 115.01
  Q 184.50 109.85 184.42 105.31
  Q 184.41 104.90 184.82 104.95
  L 185.21 105.00
  Q 185.46 105.03 185.45 105.27
  Q 185.38 110.21 185.48 115.25
  C 185.61 121.49 193.93 121.41 194.16 115.67
  Q 194.32 111.61 194.20 105.28
  Q 194.19 104.99 194.48 104.99
  L 194.95 104.98
  Q 195.19 104.97 195.19 105.21
  Q 195.21 110.09 195.21 114.77
  Q 195.20 119.70 190.60 121.00
  Z"
/>
<path fill="#000000" d="
  M 205.90 113.72
  L 205.88 120.22
  A 0.49 0.48 85.1 0 1 205.48 120.70
  L 205.20 120.75
  A 0.34 0.34 0.0 0 1 204.80 120.41
  L 204.78 106.46
  Q 204.78 104.40 206.80 104.80
  Q 208.15 105.06 209.49 105.32
  Q 211.94 105.80 212.28 108.27
  C 212.76 111.74 209.92 113.74 206.69 113.07
  A 0.66 0.65 -84.0 0 0 205.90 113.72
  Z
  M 205.87 106.31
  L 205.89 111.91
  A 0.37 0.37 0.0 0 0 206.26 112.28
  L 208.29 112.27
  A 3.04 3.02 -0.2 0 0 211.32 109.24
  L 211.32 108.94
  A 3.04 3.02 -0.2 0 0 208.27 105.93
  L 206.24 105.94
  A 0.37 0.37 0.0 0 0 205.87 106.31
  Z"
/>
<path fill="#000000" d="
  M 358.31 110.62
  L 358.27 112.57
  A 0.24 0.24 0.0 0 1 358.00 112.80
  L 357.50 112.72
  A 0.24 0.24 0.0 0 1 357.30 112.49
  L 357.22 107.32
  A 0.24 0.24 0.0 0 1 357.38 107.09
  L 357.98 106.86
  A 0.24 0.24 0.0 0 1 358.31 107.08
  L 358.28 108.99
  A 0.24 0.24 0.0 0 0 358.51 109.23
  L 360.63 109.37
  A 0.24 0.24 0.0 0 0 360.88 109.14
  L 360.98 107.23
  A 0.24 0.24 0.0 0 1 361.15 107.01
  L 361.73 106.85
  A 0.24 0.24 0.0 0 1 362.04 107.08
  L 361.95 112.47
  A 0.24 0.24 0.0 0 1 361.75 112.70
  L 361.29 112.78
  A 0.24 0.24 0.0 0 1 361.01 112.56
  L 360.85 110.43
  A 0.24 0.24 0.0 0 0 360.59 110.21
  L 358.53 110.38
  A 0.24 0.24 0.0 0 0 358.31 110.62
  Z"
/>
<path fill="#000000" d="
  M 369.07 109.82
  A 2.99 2.99 0.0 0 1 366.08 112.81
  A 2.99 2.99 0.0 0 1 363.09 109.82
  A 2.99 2.99 0.0 0 1 366.08 106.83
  A 2.99 2.99 0.0 0 1 369.07 109.82
  Z
  M 367.98 109.83
  A 1.90 1.90 0.0 0 0 366.08 107.93
  A 1.90 1.90 0.0 0 0 364.18 109.83
  A 1.90 1.90 0.0 0 0 366.08 111.73
  A 1.90 1.90 0.0 0 0 367.98 109.83
  Z"
/>
<path fill="#000000" d="
  M 246.40 108.95
  L 248.61 109.98
  Q 249.09 110.21 249.15 110.73
  C 249.44 113.18 246.67 113.23 245.27 112.15
  Q 245.00 111.95 245.04 111.62
  Q 245.06 111.46 245.20 111.35
  Q 245.36 111.23 245.53 111.34
  Q 246.53 111.92 247.57 111.90
  Q 248.02 111.88 247.99 111.44
  L 247.96 111.04
  A 0.72 0.71 89.6 0 0 247.28 110.37
  Q 245.89 110.31 245.21 109.27
  Q 244.92 108.82 245.15 108.34
  Q 246.11 106.35 248.70 107.40
  Q 248.91 107.49 248.86 107.71
  L 248.75 108.17
  Q 248.65 108.63 248.26 108.36
  Q 247.29 107.68 246.36 108.29
  Q 245.79 108.67 246.40 108.95
  Z"
/>
<path fill="#000000" d="
  M 254.33 112.23
  C 252.64 113.42 250.21 112.77 249.86 110.57
  C 249.42 107.83 251.78 106.16 254.26 107.55
  Q 254.89 107.90 255.28 107.30
  Q 255.42 107.07 255.69 107.09
  A 0.61 0.60 8.3 0 1 256.25 107.83
  Q 256.08 108.49 256.27 109.13
  Q 256.38 109.49 256.76 109.47
  L 258.40 109.40
  Q 258.80 109.38 258.78 108.98
  L 258.73 107.47
  A 0.35 0.35 0.0 0 1 259.15 107.11
  L 259.57 107.20
  Q 259.87 107.26 259.86 107.57
  L 259.77 112.25
  Q 259.76 112.67 259.36 112.78
  Q 259.20 112.83 259.03 112.78
  Q 258.77 112.69 258.76 112.41
  L 258.74 110.96
  A 0.56 0.55 -89.5 0 0 258.21 110.41
  L 256.72 110.34
  Q 256.26 110.32 256.25 110.78
  L 256.20 112.42
  A 0.45 0.44 -86.9 0 1 255.73 112.85
  Q 255.32 112.82 255.22 112.52
  Q 254.97 111.79 254.33 112.23
  Z
  M 255.12 110.95
  L 255.12 108.87
  A 0.75 0.75 0.0 0 0 254.37 108.12
  L 252.64 108.12
  A 1.78 1.74 0.1 0 0 250.86 109.86
  L 250.86 109.96
  A 1.78 1.74 0.1 0 0 252.64 111.70
  L 254.37 111.70
  A 0.75 0.75 0.0 0 0 255.12 110.95
  Z"
/>
<path fill="#000000" d="
  M 265.94 110.92
  C 264.25 115.22 257.71 111.40 261.06 107.90
  C 262.56 106.34 264.88 106.92 265.85 108.73
  Q 266.22 109.42 266.56 108.71
  C 267.72 106.29 270.79 106.56 271.89 108.76
  A 2.71 2.70 66.3 0 1 270.43 112.51
  Q 267.67 113.56 266.38 110.91
  Q 266.14 110.41 265.94 110.92
  Z
  M 265.00 109.93
  A 1.85 1.85 0.0 0 0 263.15 108.08
  A 1.85 1.85 0.0 0 0 261.30 109.93
  A 1.85 1.85 0.0 0 0 263.15 111.78
  A 1.85 1.85 0.0 0 0 265.00 109.93
  Z
  M 271.01 109.91
  A 1.85 1.85 0.0 0 0 269.16 108.06
  A 1.85 1.85 0.0 0 0 267.31 109.91
  A 1.85 1.85 0.0 0 0 269.16 111.76
  A 1.85 1.85 0.0 0 0 271.01 109.91
  Z"
/>
<path fill="#000000" d="
  M 285.46 109.93
  A 2.92 2.92 0.0 0 1 282.54 112.85
  A 2.92 2.92 0.0 0 1 279.62 109.93
  A 2.92 2.92 0.0 0 1 282.54 107.01
  A 2.92 2.92 0.0 0 1 285.46 109.93
  Z
  M 284.39 109.92
  A 1.86 1.86 0.0 0 0 282.53 108.06
  A 1.86 1.86 0.0 0 0 280.67 109.92
  A 1.86 1.86 0.0 0 0 282.53 111.78
  A 1.86 1.86 0.0 0 0 284.39 109.92
  Z"
/>
<path fill="#000000" d="
  M 287.01 109.49
  L 289.47 109.51
  A 0.23 0.23 0.0 0 1 289.70 109.74
  L 289.70 110.24
  A 0.23 0.23 0.0 0 1 289.47 110.47
  L 287.16 110.52
  A 0.23 0.23 0.0 0 0 286.94 110.73
  L 286.82 112.56
  A 0.23 0.23 0.0 0 1 286.58 112.77
  L 286.14 112.74
  A 0.23 0.23 0.0 0 1 285.92 112.51
  L 285.95 107.25
  A 0.23 0.23 0.0 0 1 286.18 107.02
  L 289.89 107.04
  A 0.23 0.23 0.0 0 1 290.12 107.33
  L 289.98 107.84
  A 0.23 0.23 0.0 0 1 289.76 108.01
  L 287.20 107.99
  A 0.23 0.23 0.0 0 0 286.98 108.18
  L 286.79 109.22
  A 0.23 0.23 0.0 0 0 287.01 109.49
  Z"
/>
<path fill="#000000" d="
  M 347.67 108.02
  Q 346.53 108.35 347.56 108.94
  C 348.40 109.42 349.71 109.53 350.06 110.55
  Q 350.56 112.02 349.11 112.58
  Q 347.37 113.25 346.07 111.88
  Q 345.52 111.29 346.33 111.36
  Q 347.23 111.44 348.10 111.82
  Q 348.69 112.08 348.85 111.46
  L 348.92 111.18
  Q 349.07 110.59 348.48 110.43
  L 347.05 110.02
  A 1.50 1.50 0.0 0 1 346.83 107.21
  Q 348.25 106.57 349.80 107.30
  A 0.33 0.32 -66.2 0 1 349.96 107.73
  L 349.84 107.99
  A 0.38 0.37 -64.8 0 1 349.35 108.17
  Q 348.50 107.78 347.67 108.02
  Z"
/>
<path fill="#000000" d="
  M 355.40 108.38
  Q 354.34 107.55 353.19 108.12
  A 1.80 1.79 -22.6 0 0 352.29 110.29
  Q 352.99 112.43 355.09 111.46
  Q 356.76 110.68 355.66 112.16
  Q 354.98 113.06 353.58 112.77
  C 349.07 111.81 351.07 105.04 355.87 107.36
  Q 356.05 107.45 356.02 107.65
  L 355.94 108.17
  Q 355.86 108.75 355.40 108.38
  Z"
/>
<path fill="#000000" d="
  M 375.88 109.82
  A 2.98 2.98 0.0 0 1 372.90 112.80
  A 2.98 2.98 0.0 0 1 369.92 109.82
  A 2.98 2.98 0.0 0 1 372.90 106.84
  A 2.98 2.98 0.0 0 1 375.88 109.82
  Z
  M 374.81 109.83
  A 1.90 1.90 0.0 0 0 372.91 107.93
  A 1.90 1.90 0.0 0 0 371.01 109.83
  A 1.90 1.90 0.0 0 0 372.91 111.73
  A 1.90 1.90 0.0 0 0 374.81 109.83
  Z"
/>
<path fill="#000000" d="
  M 381.00 112.11
  L 381.00 112.55
  Q 379.35 112.94 377.58 112.66
  Q 377.00 112.57 377.00 111.99
  L 377.00 107.26
  A 0.27 0.27 0.0 0 1 377.24 106.99
  L 377.70 106.92
  Q 378.03 106.88 378.03 107.21
  L 378.07 111.10
  A 0.75 0.75 0.0 0 0 379.10 111.78
  Q 380.34 111.27 381.00 112.11
  Z"
/>
<path fill="#000000" d="
  M 274.29 111.78
  L 276.08 111.81
  Q 276.45 111.81 276.53 112.18
  Q 276.56 112.30 276.49 112.43
  Q 276.43 112.56 276.28 112.60
  Q 274.51 113.00 272.77 112.62
  A 0.64 0.64 0.0 0 1 272.32 111.75
  Q 273.00 110.07 272.41 108.27
  Q 272.27 107.84 272.54 107.48
  Q 272.70 107.26 272.96 107.20
  Q 273.56 107.05 273.56 107.67
  L 273.56 111.04
  Q 273.56 111.78 274.29 111.78
  Z"
/>
<path fill="#000000" d="
  M 247.06 115.87
  A 1.71 1.71 0.0 0 0 246.16 118.22
  Q 247.16 120.20 249.50 118.94
  Q 250.36 118.48 249.92 119.36
  Q 249.44 120.30 248.28 120.39
  C 242.36 120.85 245.24 111.51 250.00 115.60
  Q 250.07 115.66 250.03 115.75
  L 249.90 115.99
  Q 249.75 116.28 249.47 116.12
  Q 248.23 115.40 247.06 115.87
  Z"
/>
<path fill="#000000" d="
  M 256.22 117.53
  A 2.91 2.91 0.0 0 1 253.31 120.44
  A 2.91 2.91 0.0 0 1 250.40 117.53
  A 2.91 2.91 0.0 0 1 253.31 114.62
  A 2.91 2.91 0.0 0 1 256.22 117.53
  Z
  M 255.14 117.53
  A 1.85 1.85 0.0 0 0 253.29 115.68
  A 1.85 1.85 0.0 0 0 251.44 117.53
  A 1.85 1.85 0.0 0 0 253.29 119.38
  A 1.85 1.85 0.0 0 0 255.14 117.53
  Z"
/>
<path fill="#000000" d="
  M 257.98 116.34
  Q 258.01 116.49 258.12 116.61
  Q 258.25 116.76 258.45 116.81
  Q 259.54 117.15 260.46 117.68
  A 1.21 1.20 36.8 0 1 260.74 119.55
  Q 259.08 121.32 256.77 119.62
  Q 256.61 119.50 256.73 119.34
  L 256.89 119.11
  A 0.40 0.39 31.5 0 1 257.41 118.99
  Q 258.39 119.59 259.49 119.37
  Q 260.26 119.22 259.75 118.62
  Q 259.29 118.07 258.55 118.01
  A 1.79 1.78 -5.5 0 1 256.99 116.73
  Q 256.54 115.24 258.00 114.79
  Q 259.31 114.38 260.40 115.24
  Q 261.18 115.84 260.20 115.83
  Q 259.42 115.82 258.58 115.70
  Q 257.82 115.59 257.98 116.34
  Z"
/>
<path fill="#000000" d="
  M 262.61 117.85
  Q 262.87 119.01 262.60 120.13
  Q 262.53 120.45 262.19 120.46
  Q 262.01 120.47 261.87 120.37
  Q 261.76 120.28 261.76 120.13
  Q 261.75 118.01 261.73 115.71
  Q 261.72 113.98 262.94 115.21
  Q 263.61 115.89 264.02 116.71
  A 0.54 0.54 0.0 0 0 265.01 116.64
  Q 265.41 115.43 266.39 114.86
  Q 267.09 114.45 267.09 115.26
  L 267.13 120.17
  A 0.27 0.26 88.9 0 1 266.88 120.44
  L 266.51 120.46
  Q 266.29 120.47 266.28 120.26
  L 266.10 117.80
  Q 266.05 117.11 265.47 117.49
  Q 265.04 117.78 264.93 118.30
  Q 264.80 118.94 264.20 118.68
  Q 264.01 118.59 263.97 118.43
  Q 263.76 117.73 263.14 117.43
  Q 262.43 117.08 262.61 117.85
  Z"
/>
<path fill="#000000" d="
  M 270.06 119.45
  Q 270.75 119.71 272.03 119.46
  A 0.44 0.43 70.6 0 1 272.48 119.68
  L 272.67 120.03
  Q 272.85 120.37 272.46 120.38
  L 268.91 120.48
  Q 268.18 120.50 268.18 119.78
  L 268.19 115.73
  Q 268.20 114.71 269.21 114.75
  Q 273.28 114.90 277.17 114.77
  Q 277.44 114.76 277.62 114.97
  Q 277.72 115.08 277.71 115.25
  Q 277.70 115.45 277.50 115.50
  L 276.43 115.84
  Q 275.89 116.01 275.88 116.58
  L 275.87 119.96
  Q 275.87 120.45 275.38 120.45
  L 275.07 120.45
  Q 274.81 120.46 274.81 120.19
  L 274.79 116.48
  Q 274.79 115.87 274.19 115.75
  Q 271.84 115.27 269.43 115.91
  A 0.44 0.44 0.0 0 0 269.32 116.71
  Q 270.19 117.21 271.65 117.05
  A 0.28 0.27 79.3 0 1 271.95 117.26
  L 272.05 117.68
  Q 272.17 118.21 271.65 118.07
  Q 270.83 117.86 270.17 118.05
  Q 267.95 118.68 270.06 119.45
  Z"
/>
<path fill="#000000" d="
  M 283.46 117.54
  A 2.90 2.90 0.0 0 1 280.56 120.44
  A 2.90 2.90 0.0 0 1 277.66 117.54
  A 2.90 2.90 0.0 0 1 280.56 114.64
  A 2.90 2.90 0.0 0 1 283.46 117.54
  Z
  M 282.43 117.53
  A 1.85 1.85 0.0 0 0 280.58 115.68
  A 1.85 1.85 0.0 0 0 278.73 117.53
  A 1.85 1.85 0.0 0 0 280.58 119.38
  A 1.85 1.85 0.0 0 0 282.43 117.53
  Z"
/>
<path fill="#000000" d="
  M 285.24 119.57
  L 287.60 119.42
  A 0.20 0.20 0.0 0 1 287.81 119.59
  L 287.91 120.25
  A 0.20 0.20 0.0 0 1 287.71 120.48
  L 284.37 120.45
  A 0.20 0.20 0.0 0 1 284.17 120.25
  L 284.24 114.94
  A 0.20 0.20 0.0 0 1 284.46 114.75
  L 284.86 114.80
  A 0.20 0.20 0.0 0 1 285.03 115.00
  L 285.03 119.37
  A 0.20 0.20 0.0 0 0 285.24 119.57
  Z"
/>
<path fill="#000000" d="
  M 293.81 117.53
  A 2.91 2.91 0.0 0 1 290.90 120.44
  A 2.91 2.91 0.0 0 1 287.99 117.53
  A 2.91 2.91 0.0 0 1 290.90 114.62
  A 2.91 2.91 0.0 0 1 293.81 117.53
  Z
  M 292.75 117.53
  A 1.85 1.85 0.0 0 0 290.90 115.68
  A 1.85 1.85 0.0 0 0 289.05 117.53
  A 1.85 1.85 0.0 0 0 290.90 119.38
  A 1.85 1.85 0.0 0 0 292.75 117.53
  Z"
/>
<path fill="#000000" d="
  M 298.50 118.39
  L 297.42 117.91
  Q 296.56 117.52 297.44 117.18
  Q 298.63 116.72 299.58 117.71
  A 1.27 1.26 -43.3 0 1 299.52 119.52
  Q 297.90 120.99 295.97 120.14
  C 292.59 118.66 294.61 113.28 298.98 115.04
  A 0.33 0.33 0.0 0 1 299.15 115.50
  L 299.02 115.75
  Q 298.78 116.19 298.34 115.95
  Q 296.52 114.97 295.45 116.98
  A 1.49 1.49 0.0 0 0 295.86 118.87
  Q 297.09 119.82 298.50 119.15
  Q 299.32 118.77 298.50 118.39
  Z"
/>
<path fill="#000000" d="
  M 302.95 116.51
  Q 303.35 115.33 304.43 114.60
  Q 304.51 114.55 304.57 114.61
  L 304.89 114.89
  A 0.35 0.35 0.0 0 1 304.91 115.40
  Q 302.91 117.40 302.91 119.79
  Q 302.91 120.39 302.33 120.52
  Q 302.19 120.55 302.05 120.43
  Q 301.92 120.33 301.93 120.16
  Q 302.06 117.77 300.03 115.48
  Q 299.27 114.62 300.40 114.86
  Q 301.51 115.09 301.88 116.48
  A 0.56 0.56 0.0 0 0 302.95 116.51
  Z"
/>
</svg>
